# xmcd
#
# Track frame offsets: 
#        183
#        15083
#        34333
#        52533
#        82345
#        96383
#        115395
#        127145
#        145783
#
# Disc length: 2401 seconds
#
# Revision: 2
# Processed by: cddbd v1.5.1PL2 Copyright (c) Steve Scherf et al.
# Submitted via: ExactAudioCopy v0.95a5
#
DISCID=74095f09
DTITLE=Eddie Cleanhead Vinson - Meat's Too Hiigh
DYEAR=1994
DGENRE=Blues
TTITLE0=Home Baby
TTITLE1=Meat's Too High
TTITLE2=Somebody's Got To Go
TTITLE3=Somebody Else Has Taken My Place
TTITLE4=Investigation Blues
TTITLE5=If You Were My Buddy
TTITLE6=Old Maid Blues
TTITLE7=That's All
TTITLE8=Travellin'
EXTD=
EXTT0=
EXTT1=
EXTT2=
EXTT3=
EXTT4=
EXTT5=
EXTT6=
EXTT7=
EXTT8=
PLAYORDER=
